<?xml version="1.0" encoding="utf-8"?>
<!-- Generator: Adobe Illustrator 16.0.0, SVG Export Plug-In . SVG Version: 6.00 Build 0)  -->
<!DOCTYPE svg PUBLIC "-//W3C//DTD SVG 1.1//EN" "http://www.w3.org/Graphics/SVG/1.1/DTD/svg11.dtd">
<svg version="1.1" id="Layer_1" xmlns="http://www.w3.org/2000/svg" xmlns:xlink="http://www.w3.org/1999/xlink" x="0px" y="0px"
	 width="312.041px" height="418.889px" viewBox="512.239 42.775 312.041 418.889"
	 enable-background="new 512.239 42.775 312.041 418.889" xml:space="preserve">
<g>
	<path d="M824.28,118.944C824.28,118.44,824.28,118.44,824.28,118.944c0-1.008,0-1.512,0-2.016v-0.504c0,0,0,0,0-0.504
		c-0.504-1.512-18.648-41.832-72.072-55.44h-0.504H751.2L552.624,42.84c-3.528-0.504-6.552,2.016-7.056,5.544l-1.009,16.128
		l-18.647,1.008c-3.528,0-6.048,3.024-6.048,6.552l6.048,200.088c0,0.504,0,0.504,0,1.008L512.304,430.92
		c-0.504,3.528,2.017,6.552,5.544,7.056l13.104,1.009l0.504,16.632c0,1.512,1.008,3.023,2.016,4.536
		c1.009,1.008,2.521,1.512,4.536,1.512l0,0l181.944-5.544c0.504,0,1.008,0,1.512-0.504l67.032,6.048H789
		c1.512,0,3.024-0.504,4.032-1.512c1.512-1.009,2.016-2.521,2.016-4.032v-2.017l13.608-0.504c1.512,0,3.527-1.008,4.536-2.016
		c1.008-1.008,1.512-3.024,1.512-4.536l-6.552-146.664L824.28,118.944z M806.136,109.872c-2.016,0-4.032,0-6.048,0
		c-11.088,0-20.664,2.016-27.72,4.032c1.512-14.616-2.017-26.712-6.552-35.28C786.48,87.696,799.08,100.8,806.136,109.872z
		 M532.464,77.616l10.584-0.504l-8.063,90.72L532.464,77.616z M544.056,448.056l-0.504-8.567l73.584,6.552L544.056,448.056z
		 M538.512,426.384h-0.504l-12.096-1.008l32.256-369.432l189.504,16.632c4.536,5.544,18.145,24.192,10.584,49.392
		c-0.504,2.52,0,5.04,2.016,6.552c1.009,1.008,2.521,1.512,4.032,1.512c1.009,0,2.017,0,2.521-0.504c0,0,14.616-6.552,33.264-6.552
		c4.032,0,7.561,0.504,11.088,1.008L782.952,448.56L538.512,426.384z M802.104,440.496h-6.048l4.032-44.856L802.104,440.496z"/>
	<path d="M594.456,180.936l144.144,12.6h0.504c3.024,0,6.049-2.52,6.049-5.544c0.504-3.528-2.017-6.552-5.544-7.056l-144.145-12.6
		c-3.528-0.504-6.552,2.016-7.056,5.544C587.904,177.408,590.928,180.936,594.456,180.936z"/>
	<path d="M750.192,218.232l-157.248-13.608c-3.528-0.504-6.553,2.016-7.057,5.544s2.017,6.552,5.544,7.056l157.248,13.608h0.504
		c3.024,0,6.049-2.52,6.049-5.544C756.24,221.256,753.72,218.232,750.192,218.232z"/>
	<path d="M698.28,262.584c3.023,0,6.048-2.52,6.048-5.544c0.504-3.528-2.016-6.552-5.544-7.056l-109.368-9.576
		c-3.528-0.504-6.552,2.016-7.056,5.544c-0.505,3.528,2.016,6.552,5.544,7.056l109.872,9.072L698.28,262.584z"/>
	<path d="M597.984,128.016l88.703,7.56h0.505c3.023,0,6.048-2.52,6.048-5.544c0.504-3.528-2.017-6.552-5.544-7.056l-88.704-7.56
		c-3.528-0.504-6.553,2.016-7.057,5.544S594.456,127.512,597.984,128.016z"/>
	<path d="M583.217,299.128l144.144,12.6h0.504c3.024,0,6.049-2.52,6.049-5.544c0.504-3.528-2.017-6.552-5.544-7.056l-144.145-12.6
		c-3.528-0.504-6.552,2.016-7.056,5.544C576.665,295.6,579.688,299.128,583.217,299.128z"/>
	<path d="M738.953,336.424l-157.248-13.607c-3.528-0.504-6.553,2.016-7.057,5.543c-0.504,3.528,2.017,6.553,5.544,7.057
		l157.248,13.607h0.504c3.024,0,6.049-2.52,6.049-5.543C745.001,339.447,742.48,336.424,738.953,336.424z"/>
	<path d="M687.041,380.775c3.023,0,6.048-2.52,6.048-5.543c0.504-3.528-2.016-6.553-5.544-7.057L578.177,358.6
		c-3.528-0.504-6.552,2.016-7.056,5.545c-0.505,3.527,2.016,6.551,5.544,7.055l109.872,9.072L687.041,380.775z"/>
</g>
</svg>
