<?xml version="1.0" encoding="utf-8"?>
<!-- Generator: Adobe Illustrator 16.0.0, SVG Export Plug-In . SVG Version: 6.00 Build 0)  -->
<!DOCTYPE svg PUBLIC "-//W3C//DTD SVG 1.1//EN" "http://www.w3.org/Graphics/SVG/1.1/DTD/svg11.dtd">
<svg version="1.1" id="Layer_1" xmlns="http://www.w3.org/2000/svg" xmlns:xlink="http://www.w3.org/1999/xlink" x="0px" y="0px"
	 width="504px" height="504.051px" viewBox="348 -0.025 504 504.051" enable-background="new 348 -0.025 504 504.051"
	 xml:space="preserve">
<path d="M785.653,199.493v-13.905c0-102.332-83.281-185.613-185.613-185.613c-102.382,0-185.663,83.281-185.663,185.613v13.905
	C387.523,201.706,348,214.432,348,251.959v66.402c0,41.838,49.074,52.859,75.016,52.859c4.747,0,8.588-3.84,8.588-8.613V251.959
	c0-4.748-3.841-8.588-8.588-8.588c-4.799,0-8.639,3.84-8.639,8.588v101.546c-16.072-1.674-49.125-8.316-49.125-35.145v-66.402
	c0-35.068,57.169-35.632,57.759-35.632c4.747,0,8.588-3.841,8.588-8.588v-22.151c0-92.832,75.555-168.437,168.437-168.437
	c92.832,0,168.382,75.605,168.382,168.437v22.151c0,4.748,3.84,8.588,8.669,8.588c0.493,0,57.732,0.418,57.732,35.632v66.402
	c0,26.677-33.027,33.37-49.17,35.094V251.959c0-4.748-3.841-8.588-8.562-8.588c-4.829,0-8.669,3.84-8.669,8.588v110.648
	c0,29.686-9.304,97.51-93.422,101.839V451.11c0-12.303-8.17-30.714-30.739-30.714h-88.492c-27.417,0-41.812,21.017-41.812,41.787
	c0,20.774,14.395,41.842,41.812,41.842h88.498c4.747,0,8.613-3.886,8.613-8.613s-3.866-8.664-8.613-8.664h-88.498
	c-16.984,0-24.585-12.308-24.585-24.564c0-12.207,7.605-24.561,24.585-24.561h88.498c11.959,0,13.437,9.501,13.537,13.487v22.146
	c0,4.773,3.865,8.618,8.613,8.618c42.653,0,74.692-13.588,95.316-40.365c17.429-22.589,22.695-49.613,23.729-70.681
	C812.33,368.661,852,356.016,852,318.361v-66.402C852,214.432,812.477,201.706,785.653,199.493z"/>
</svg>
