<?xml version="1.0" encoding="utf-8"?>
<!-- Generator: Adobe Illustrator 16.0.0, SVG Export Plug-In . SVG Version: 6.00 Build 0)  -->
<!DOCTYPE svg PUBLIC "-//W3C//DTD SVG 1.1//EN" "http://www.w3.org/Graphics/SVG/1.1/DTD/svg11.dtd">
<svg version="1.1" id="Layer_1" xmlns="http://www.w3.org/2000/svg" xmlns:xlink="http://www.w3.org/1999/xlink" x="0px" y="0px"
	 width="15360.052px" height="5040px" viewBox="0 0 15360.052 5040" enable-background="new 0 0 15360.052 5040"
	 xml:space="preserve">
<g>
	<path fill-rule="evenodd" clip-rule="evenodd" fill="#FFFDFD" d="M12048,0c0.49,10.641,0.285,21.367,1.582,31.91
		c9.266,75.387,19.02,150.714,28.25,226.105c6.637,54.232,12.488,108.561,19.078,162.8c6.59,54.234,13.855,108.387,20.473,162.618
		c6.617,54.236,12.646,108.543,19.213,162.785c6.566,54.238,13.553,108.425,20.213,162.651
		c6.34,51.583,12.457,103.193,18.742,154.784c7.09,58.201,14.281,116.39,21.379,174.59c6.129,50.268,12.164,100.547,18.283,150.814
		c7.244,59.525,14.598,119.036,21.789,178.567c6.393,52.919,12.549,105.867,18.957,158.784
		c6.729,55.562,13.67,111.097,20.455,166.651c3.875,31.747,7.623,63.511,11.422,95.268c2.371,19.841,4.854,39.671,7.035,59.533
		c0.754,6.845-4.406,12.792-11.457,13.721c-22.449,2.957-44.891,6.008-67.377,8.647c-54.256,6.369-108.564,12.258-162.795,18.842
		c-54.219,6.583-108.336,14.017-162.555,20.631c-54.227,6.614-108.539,12.512-162.775,19.039
		c-35.711,4.299-71.352,9.189-107.033,13.74c-7.801,0.994-12.801-2.688-14.367-10.194c-0.273-1.304-0.484-2.619-0.707-3.933
		c-1.332-7.886-2.998-15.733-3.941-23.666c-8.98-75.426-17.779-150.872-26.742-226.299c-5.816-48.963-11.73-97.915-17.814-146.845
		c-1.15-9.239-3.096-18.401-5.119-27.5c-0.91-4.095-4.191-6.493-8.443-6.923c-2.635-0.267-5.354-0.342-7.971-0.014
		c-52.875,6.634-105.74,13.36-158.613,20.018c-25.115,3.163-50.23,6.345-75.371,9.303c-76.746,9.03-153.535,17.681-230.246,26.999
		c-75.383,9.157-150.68,19.01-226.035,28.413c-14.543,1.815-29.189,2.817-43.754,4.492c-6.977,0.802-12.707,4.622-16.137,10.552
		c-5.332,9.214-9.867,18.89-14.676,28.402c-67.93,134.337-135.844,268.679-203.762,403.021
		c-5.41,10.702-10.824,21.402-16.199,32.122c-3.836,7.649-9.586,12.286-18.414,13.347c-9.254,1.111-18.369,3.354-27.621,4.492
		c-66.117,8.131-132.238,16.231-198.387,24.09c-54.242,6.443-108.562,12.276-162.787,18.865
		c-54.225,6.588-108.344,14.027-162.564,20.636c-54.223,6.608-108.523,12.585-162.77,18.991c-11.904,1.406-23.727,3.506-35.598,5.2
		c-7.965,1.137-13.949-0.339-13.742-3.405c0.258-3.843,0.342-8.119,2.066-11.379c24.312-45.92,48.859-91.716,73.41-137.508
		c234.812-437.963,469.637-875.92,704.461-1313.878c69.879-130.329,139.676-260.704,209.691-390.962
		c34.752-64.654,73.236-126.969,118.201-185.119c50.846-65.755,109.74-123.462,175.037-174.742
		c27.311-21.449,56.602-39.88,86.66-57.208c57.359-33.066,119.293-52.257,184.605-60.96c43.574-5.807,87.291-10.564,130.908-16.08
		c13.205-1.67,26.242-4.667,39.447-6.346c6.52-0.828,13.246-0.04,19.877,0.017c8.764-0.118,17.525-0.205,26.287-0.363
		c7.766-0.141,14.828-2.102,20.25-8.118C11722.668,0,11885.332,0,12048,0z M11258.557,1342.204c0.025,0.213,0.053,0.426,0.078,0.639
		c35.672-4.627,71.322-9.408,107.02-13.844c46.271-5.749,92.582-11.176,138.863-16.852c10.701-1.312,14.518-5.837,13.361-15.349
		c-5.797-47.62-11.623-95.235-17.484-142.847c-6.674-54.222-13.508-108.423-20.062-162.658
		c-6.557-54.24-12.762-108.522-19.287-162.767c-7.162-59.53-14.424-119.048-21.814-178.551
		c-4.762-38.348-9.809-76.662-14.836-114.977c-0.336-2.574-1.484-5.08-2.584-7.465c-0.139-0.299-2.561-0.027-3.502,0.606
		c-7.006,4.704-9.23,12.554-12.721,19.604c-131.818,266.189-263.666,532.363-395.471,798.558
		c-2.953,5.964-5.496,12.132-8.158,18.236c-1.225,2.811,3.389,8.337,6.658,7.985c21.191-2.282,42.414-4.333,63.566-6.944
		C11134.322,1357.91,11196.434,1350.013,11258.557,1342.204z"/>
	<path fill-rule="evenodd" clip-rule="evenodd" fill="#FFFDFD" d="M15017.43,7.488c9.418,16.63,11.281,35.378,13.656,53.645
		c6.182,47.593,9.525,95.397,8.465,143.494c-2.273,103.288-19.965,203.898-51.635,302.101
		c-31.652,98.149-75.697,190.37-133.236,276.056c-31.957,47.59-65.523,93.997-102.83,137.561
		c-79.736,93.108-172.85,169.43-282.525,225.095c-64.68,32.828-132.41,55.383-204.586,64.064
		c-42.301,5.089-84.59,10.277-126.859,15.601c-54.16,6.82-108.266,14.071-162.453,20.675s-108.477,12.412-162.668,18.982
		c-54.191,6.569-108.316,13.689-162.48,20.493c-26.426,3.319-52.859,6.566-79.309,9.673
		c-52.895,6.212-105.805,12.293-158.703,18.475c-2.629,0.308-5.262,0.869-7.793,1.641c-5.461,1.665-9.555,5.564-10.805,10.778
		c-8.379,34.948-16.465,69.969-24.426,105.015c-35.684,157.049-71.285,314.117-106.953,471.169
		c-2.359,10.384-5.016,20.7-7.57,31.038c-1.377,5.576-4.617,9.623-10.436,10.604c-14.439,2.432-28.871,5.042-43.4,6.771
		c-76.684,9.124-153.43,17.72-230.09,27.038c-75.332,9.158-150.562,19.182-225.887,28.41
		c-54.188,6.639-108.461,12.586-162.691,18.862c-19.826,2.295-39.627,4.816-59.475,6.898c-7.658,0.803-11.424-4.431-9.799-12.568
		c0.262-1.306,0.375-2.643,0.668-3.94c16.959-75.313,34.059-150.597,50.875-225.942c30.738-137.704,61.271-275.454,91.961-413.169
		c32.717-146.812,65.457-293.618,98.295-440.403c33.42-149.378,66.99-298.722,100.455-448.089
		c31.43-140.273,62.828-280.554,94.18-420.845c3.773-16.885,7.43-33.806,10.598-50.812c0.951-5.109,0.07-10.562,0.027-15.856
		c5.332,0,10.668,0,16,0c5.062,4.718,11.082,7.455,17.955,7.639c11.99,0.32,23.988,0.358,35.982,0.358
		c646.504,0.015,1293.008,0.017,1939.51-0.009C14985.441,7.988,15001.434,7.662,15017.43,7.488z M14351.672,314.525
		c0-9.321,0.285-18.652-0.047-27.962c-2.031-57.39-24.773-105.841-65.176-145.841c-47.32-46.85-104.105-67.595-170.916-59.018
		c-43.568,5.593-87.207,10.612-130.809,15.938c-25.107,3.066-50.201,6.24-75.303,9.347c-35.664,4.413-71.332,8.778-106.992,13.219
		c-44.908,5.592-89.811,11.226-134.711,16.878c-5.895,0.742-9.445,4.404-11.094,9.895c-1.148,3.816-1.957,7.736-2.852,11.625
		c-12.551,54.461-25.168,108.905-37.613,163.389c-33.781,147.89-67.529,295.786-101.195,443.702
		c-6.492,28.533-12.613,57.153-18.766,85.764c-1.133,5.261,3.941,11.027,8.891,10.445c47.586-5.596,95.182-11.086,142.736-16.918
		c54.166-6.642,108.227-14.204,162.459-20.23c43.68-4.854,87.322-10.039,130.516-17.939c49.82-9.113,98.402-22.707,144.156-45.361
		c37.531-18.583,70.438-42.806,97.219-75.118c19.547-23.587,39.199-47.09,58.527-70.857c22.752-27.975,42.566-57.929,59.074-90.018
		C14333.824,459.276,14353.377,389.468,14351.672,314.525z"/>
	<path fill-rule="evenodd" clip-rule="evenodd" fill="#ED1D3B" d="M15357.777,249.722c-4.432-5.097-4.242-11.492-3.133-17.82
		c1.793-0.339,3.578-0.306,5.355,0.099c0-77.333,0-154.667,0-232c-93.332,0-186.668,0-280,0c-21.332,0-42.668,0-64,0
		c0.648,1.601,1.449,3.162,1.883,4.819c0.207,0.796-0.281,1.773-0.453,2.669c9.418,16.63,11.281,35.378,13.656,53.645
		c6.182,47.593,9.525,95.397,8.465,143.494c-2.273,103.288-19.965,203.898-51.635,302.101
		c-31.652,98.149-75.697,190.37-133.236,276.056c-31.957,47.59-65.523,93.997-102.83,137.561
		c-79.736,93.108-172.85,169.43-282.525,225.095c-64.68,32.828-132.41,55.383-204.586,64.064
		c-42.301,5.089-84.59,10.277-126.859,15.601c-54.16,6.82-108.266,14.071-162.453,20.675s-108.477,12.412-162.668,18.982
		c-54.191,6.569-108.316,13.689-162.48,20.493c-26.426,3.319-52.859,6.566-79.309,9.673
		c-52.895,6.212-105.805,12.293-158.703,18.475c-2.629,0.308-5.262,0.869-7.793,1.641c-5.461,1.665-9.555,5.564-10.805,10.778
		c-8.379,34.948-16.465,69.969-24.426,105.015c-35.684,157.049-71.285,314.117-106.953,471.169
		c-2.359,10.384-5.016,20.7-7.57,31.038c-1.377,5.576-4.617,9.623-10.436,10.604c-14.439,2.432-28.871,5.042-43.4,6.771
		c-76.684,9.124-153.43,17.72-230.09,27.038c-75.332,9.158-150.562,19.182-225.887,28.41
		c-54.188,6.639-108.461,12.586-162.691,18.862c-19.826,2.295-39.627,4.816-59.475,6.898c-7.658,0.803-11.424-4.431-9.799-12.568
		c0.262-1.306,0.375-2.643,0.668-3.94c16.959-75.313,34.059-150.597,50.875-225.942c30.738-137.704,61.271-275.454,91.961-413.169
		c32.717-146.812,65.457-293.618,98.295-440.403c33.42-149.378,66.99-298.722,100.455-448.089
		c31.43-140.273,62.828-280.554,94.18-420.845c3.773-16.885,7.43-33.806,10.598-50.812c0.951-5.109,0.07-10.562,0.027-15.856
		c-304,0-608,0-912,0c0.49,10.641,0.285,21.367,1.582,31.91c9.266,75.387,19.02,150.714,28.25,226.105
		c6.637,54.232,12.488,108.561,19.078,162.8c6.59,54.234,13.855,108.387,20.473,162.618c6.617,54.236,12.646,108.543,19.213,162.785
		c6.566,54.238,13.553,108.425,20.213,162.651c6.34,51.583,12.457,103.193,18.742,154.784c7.09,58.201,14.281,116.39,21.379,174.59
		c6.129,50.268,12.164,100.547,18.283,150.814c7.244,59.525,14.598,119.036,21.789,178.567
		c6.393,52.919,12.549,105.867,18.957,158.784c6.729,55.562,13.67,111.097,20.455,166.651c3.875,31.747,7.623,63.511,11.422,95.268
		c2.371,19.841,4.854,39.671,7.035,59.533c0.754,6.845-4.406,12.792-11.457,13.721c-22.449,2.957-44.891,6.008-67.377,8.647
		c-54.256,6.369-108.564,12.258-162.795,18.842c-54.219,6.583-108.336,14.017-162.555,20.631
		c-54.227,6.614-108.539,12.512-162.775,19.039c-35.711,4.299-71.352,9.189-107.033,13.74c-7.801,0.994-12.801-2.688-14.367-10.194
		c-0.273-1.304-0.484-2.619-0.707-3.933c-1.332-7.886-2.998-15.733-3.941-23.666c-8.98-75.426-17.779-150.872-26.742-226.299
		c-5.816-48.963-11.73-97.915-17.814-146.845c-1.15-9.239-3.096-18.401-5.119-27.5c-0.91-4.095-4.191-6.493-8.443-6.923
		c-2.635-0.267-5.354-0.342-7.971-0.014c-52.875,6.634-105.74,13.36-158.613,20.018c-25.115,3.163-50.23,6.345-75.371,9.303
		c-76.746,9.03-153.535,17.681-230.246,26.999c-75.383,9.157-150.68,19.01-226.035,28.413c-14.543,1.815-29.189,2.817-43.754,4.492
		c-6.977,0.802-12.707,4.622-16.137,10.552c-5.332,9.214-9.867,18.89-14.676,28.402c-67.93,134.337-135.844,268.679-203.762,403.021
		c-5.41,10.702-10.824,21.402-16.199,32.122c-3.836,7.649-9.586,12.286-18.414,13.347c-9.254,1.111-18.369,3.354-27.621,4.492
		c-66.117,8.131-132.238,16.231-198.387,24.09c-54.242,6.443-108.562,12.276-162.787,18.865
		c-54.225,6.588-108.344,14.027-162.564,20.636c-54.223,6.608-108.523,12.585-162.77,18.991c-11.904,1.406-23.727,3.506-35.598,5.2
		c-7.965,1.137-13.949-0.339-13.742-3.405c0.258-3.843,0.342-8.119,2.066-11.379c24.312-45.92,48.859-91.716,73.41-137.508
		c234.812-437.963,469.637-875.92,704.461-1313.878c69.879-130.329,139.676-260.704,209.691-390.962
		c34.752-64.654,73.236-126.969,118.201-185.119c50.846-65.755,109.74-123.462,175.037-174.742
		c27.311-21.449,56.602-39.88,86.66-57.208c57.359-33.066,119.293-52.257,184.605-60.96c43.574-5.807,87.291-10.564,130.908-16.08
		c13.205-1.67,26.242-4.667,39.447-6.346c6.52-0.828,13.246-0.04,19.879,0.017c0.523-2.031,1.373-4.058,1.402-6.096
		c0.012-0.782-1.855-1.59-2.867-2.386C7770.666,0,4029.333,0,288,0C192,0,96,0,0,0c0,96,0,192,0,288c0,1248,0,2496,0,3744
		c5.463,0.303,10.925,0.605,16.389,0.908c11.776-2.168,23.47-5.079,35.34-6.378c59.566-6.517,119.202-12.387,178.766-18.917
		c59.563-6.53,119.058-13.688,178.607-20.349c34.408-3.848,68.877-7.152,103.298-10.891c37.064-4.025,74.106-8.255,111.154-12.426
		c26.463-2.979,52.913-6.077,79.382-9.005c50.293-5.562,100.596-11.037,150.895-16.553c8.414-0.922,15.521,1.721,22.079,7.07
		c26.835,21.889,53.427,44.104,80.835,65.258c240.561,185.66,508.439,314.991,803.455,387.649
		c78.868,19.424,158.857,33.149,239.495,43.788c132.635,17.501,265.629,18.193,398.896,13.217c13.29-0.496,26.515-2.55,39.799-3.461
		c21.245-1.459,42.515-2.567,63.774-3.824c12.412-5.671,25.397-7.266,38.861-5.456c47.238-8.169,94.616-15.616,141.693-24.634
		c197.58-37.852,385.478-103.979,564.072-196.246c281.305-145.332,519.25-343.355,715.505-591.668
		c1.652-2.091,3.277-4.205,4.947-6.282c27.815-34.603,18.755-28.898,58.565-33.15c71.541-7.64,143.057-15.509,214.557-23.53
		c59.578-6.684,119.092-13.963,178.684-20.537c59.596-6.574,119.273-12.396,178.873-18.926s119.145-13.547,178.719-20.307
		c27.803-3.154,55.605-6.311,83.429-9.278c84.792-9.042,169.617-17.784,254.385-27.051c59.6-6.516,119.099-13.938,178.692-20.51
		c59.597-6.572,119.278-12.373,178.879-18.909c60.924-6.682,121.783-13.96,182.695-20.753c34.429-3.839,68.92-7.11,103.36-10.851
		c35.762-3.885,71.497-8.013,107.241-12.059c27.803-3.146,55.593-6.4,83.402-9.483c50.322-5.579,100.637-11.231,150.994-16.48
		c13.221-1.378,26.583-1.392,39.881-2.032c11.045-5.381,22.645-6.791,34.712-4.844c29.081-3.526,58.146-7.189,87.246-10.544
		c38.382-4.424,76.794-8.593,115.19-12.895c29.128-3.263,58.236-6.699,87.381-9.819c84.783-9.077,169.605-17.79,254.361-27.107
		c83.43-9.172,166.774-19.117,250.2-28.328c60.918-6.725,121.934-12.564,182.856-19.246c59.594-6.536,119.1-13.851,178.688-20.431
		c59.591-6.581,119.249-12.551,178.851-19.03c35.76-3.888,71.465-8.285,107.203-12.363c27.8-3.174,55.604-6.314,83.424-9.284
		c84.791-9.051,169.613-17.808,254.381-27.075c59.596-6.516,119.095-13.909,178.686-20.483
		c59.594-6.574,119.265-12.438,178.866-18.945c59.601-6.508,119.146-13.513,178.735-20.135
		c35.754-3.974,71.554-7.544,107.314-11.452c35.758-3.909,71.495-7.996,107.237-12.038c29.125-3.293,58.228-6.798,87.37-9.923
		c84.783-9.094,169.611-17.806,254.369-27.12c84.762-9.314,169.438-19.372,254.195-28.73
		c60.914-6.726,121.932-12.553,182.848-19.285c83.426-9.22,166.781-19.104,250.207-28.349
		c59.59-6.604,119.266-12.452,178.871-18.955c59.602-6.504,119.16-13.418,178.742-20.119c30.451-3.425,60.91-6.79,91.367-10.16
		c68.859-7.621,137.707-15.344,206.586-22.807c59.607-6.458,119.268-12.438,178.869-18.956s119.15-13.52,178.736-20.157
		c34.43-3.836,68.9-7.311,103.34-11.059c37.086-4.037,74.16-8.165,111.234-12.329c29.125-3.271,58.223-6.834,87.363-9.965
		c84.785-9.11,169.609-17.846,254.373-27.151c83.439-9.16,166.803-19.003,250.232-28.232c59.592-6.592,119.262-12.491,178.859-19.02
		c59.598-6.529,119.15-13.479,178.727-20.201c29.129-3.288,58.27-6.5,87.406-9.711c95.355-10.504,190.703-21.092,286.074-31.451
		c59.607-6.475,119.273-12.398,178.873-18.937c59.598-6.538,119.129-13.686,178.721-20.287
		c58.27-6.454,116.588-12.472,174.869-18.836c60.93-6.654,121.842-13.47,182.756-20.264c29.133-3.25,58.232-6.776,87.379-9.896
		c59.617-6.378,119.275-12.358,178.875-18.891c59.6-6.531,119.129-13.702,178.723-20.284
		c59.598-6.583,119.254-12.647,178.855-19.192c60.924-6.691,121.814-13.706,182.723-20.547c29.129-3.271,58.266-6.485,87.398-9.696
		c70.191-7.735,140.373-15.563,210.58-23.147c60.939-6.582,121.932-12.673,182.857-19.36c59.602-6.542,119.129-13.748,178.727-20.32
		c59.598-6.571,119.258-12.562,178.859-19.095c59.598-6.533,119.152-13.439,178.732-20.145c29.131-3.279,58.268-6.494,87.404-9.7
		c96.684-10.637,193.375-21.224,290.057-31.896c52.977-5.849,105.939-11.83,158.908-17.752c0-693.333,0-1386.667,0-2080
		C15359.148,259.281,15361.721,254.257,15357.777,249.722z M4175.732,2484.249c-0.119,19.959,0.879,40.041-5.537,59.476
		c-1.229,3.719-1.686,7.938-1.438,11.859c2.116,33.591-7.226,66.056-9.653,99.212c-1.258,17.174-4.664,34.253-7.977,51.204
		c-12.496,63.958-23.492,128.26-43.141,190.615c-9.605,30.478-18.276,61.255-28.185,91.631
		c-19.845,60.841-42.961,120.406-70.661,178.168c-9.208,19.202-16.132,39.553-26.031,58.361
		c-35.987,68.373-73.215,136.027-116.431,200.264c-29.755,44.228-59.814,88.248-92.975,129.934
		c-19.852,24.954-38.497,51.028-61.498,73.476c-9.474,9.246-17.247,20.221-25.955,30.27c-6.972,8.047-13.868,16.198-21.353,23.756
		c-28.141,28.419-56.339,56.787-84.889,84.794c-9.47,9.29-20.029,17.475-30.158,26.086c-3.041,2.585-6.727,4.516-9.408,7.405
		c-22.766,24.534-50.23,43.684-75.539,65.24c-26.293,22.396-54.615,42.494-82.717,62.669
		c-55.244,39.66-112.672,76.206-172.123,109.004c-57.111,31.508-115.579,60.636-175.791,86.27
		c-56.465,24.037-113.624,45.991-172.057,64.436c-55.828,17.623-111.932,34.59-169.79,44.705
		c-5.229,0.914-10.277,2.811-15.468,3.998c-37.607,8.601-75.361,16.363-113.918,19.398c-29.566,8.854-60.786,5.904-90.747,12.925
		c-14.026,3.287-29.146,2.116-43.782,2.555c-26.593,0.796-53.342-1.007-79.485,6.163c-5.035,1.381-10.589,1.168-15.905,1.18
		c-33.329,0.079-66.658,0.07-99.986-0.064c-5.311-0.021-10.865,0.043-15.885-1.399c-23.49-6.751-47.565-5.321-71.506-5.797
		c-18.644-0.37-37.354,0.384-55.492-5.426c-3.755-1.202-7.861-1.706-11.823-1.802c-60.184-1.471-118.82-14.572-177.295-26.447
		c-58.601-11.9-116.804-26.494-173.878-45.146c-62.081-20.288-123.611-41.945-183.963-66.904
		c-9.845-4.07-19.524-8.594-29.064-13.342c-47.735-23.762-95.581-47.314-143.004-71.686c-21.301-10.946-42.043-23.086-62.457-35.631
		c-65.855-40.469-128.846-85.14-190.055-132.271c-22.116-17.03-42.284-36.575-64.203-53.88
		c-63.035-49.765-115.763-110.152-172.682-166.219c-26.17-33.61-56.449-63.756-81.901-98.013
		c-36.551-49.193-73.28-98.243-105.808-150.251c-30.373-48.562-59.838-97.59-86.278-148.521
		c-38.146-73.476-70.445-149.427-99.894-226.63c-10.9-28.575-19.247-58.148-28.178-87.443c-6.598-21.64-11.505-43.809-18.484-65.314
		c-15.662-48.262-24.452-98.145-34.311-147.661c-5.159-25.913-11.406-52.062-11.555-78.882
		c-10.245-33.458-4.67-69.006-13.627-102.729c-2.34-8.81-1.539-18.553-1.549-27.867c-0.105-87.986-0.082-175.972-0.072-263.958
		c0.002-14.684,0.579-29.26,4.594-43.595c1.776-6.34,2.925-13.2,2.581-19.73c-1.631-30.96,6.791-60.825,10.347-91.136
		c4.634-39.504,14.345-78.429,22.212-117.534c14.467-71.909,34.33-142.392,58.746-211.49c14.187-40.149,29.426-79.93,45.852-119.312
		c25.71-61.643,55.927-121.031,87.35-179.725c30.779-57.493,64.073-113.704,103.608-165.915
		c16.875-22.284,32.061-45.855,49.086-68.018c17.823-23.2,37.319-45.109,55.408-68.113
		c49.625-63.111,109.484-116.401,165.625-173.25c18.702-18.938,37.016-38.453,59.754-52.892
		c33.955-32.15,72.723-58.156,109.702-86.479c37.103-28.418,76.059-54.112,115.591-78.709
		c48.601-30.24,98.414-58.589,149.668-84.342c52.454-26.356,106.556-48.833,160.863-70.881
		c91.574-37.178,186.487-63.692,282.672-85.383c38.794-8.748,77.635-18.897,117.809-20.407c25.487-8.697,52.831-5.642,78.732-12.618
		c11.33-3.052,23.814-2.078,35.788-2.41c19.968-0.553,39.876-0.2,59.528-5.568c8.805-2.405,18.518-1.961,27.82-1.987
		c55.992-0.157,111.986-0.15,167.979-0.001c9.306,0.025,19.038-0.532,27.825,1.891c19.646,5.415,39.548,5.284,59.521,5.611
		c13.345,0.219,26.622,0.617,39.594,4.494c5.061,1.513,10.44,2.529,15.708,2.689c34.752,1.054,68.396,9.439,102.527,14.703
		c54.013,8.329,107.123,20.677,159.823,34.585c54.051,14.265,107.976,29.251,159.757,50.935
		c23.326,9.769,47.539,17.428,70.834,27.264c36.796,15.535,73.448,31.477,109.636,48.371
		c54.394,25.395,105.406,57.01,157.143,87.276c58.748,34.37,113.66,74.373,167.845,115.289
		c24.364,18.398,49.165,36.582,70.74,58.499c2.805,2.848,5.569,5.826,8.768,8.179c43.194,31.773,78.307,72.173,116.604,109.164
		c10.545,10.185,20.196,21.317,30.983,31.225c28.597,26.261,51.461,57.594,76.612,86.828c24.261,28.199,45.147,59.273,68.18,88.562
		c28.895,36.743,54.215,75.984,78.774,115.538c31.602,50.896,61.445,102.929,87.891,156.832
		c19.378,39.497,36.555,79.893,54.04,120.234c22.332,51.524,39.885,104.568,57.026,157.802
		c22.043,68.45,40.705,137.84,53.002,208.817c4.309,24.879,9.467,49.61,13.809,74.484c1.367,7.835,1.108,15.94,2.005,23.876
		c1.192,10.556,2.736,21.072,4.243,31.59c0.376,2.627,1.57,5.168,1.732,7.789c1.236,19.938,0.728,40.143,3.895,59.758
		c2.98,18.469,5.958,36.702,5.805,55.468c-0.283,34.66-0.081,69.324-0.081,103.986c0.019,0,0.037,0,0.056,0
		C4175.783,2420.257,4175.922,2452.254,4175.732,2484.249z M7198.174,2679.421c-17.152,2.415-34.288,4.955-51.467,7.17
		c-21.141,2.726-42.307,5.262-63.479,7.724c-54.259,6.308-108.56,12.271-162.784,18.857
		c-54.223,6.588-108.343,14.007-162.562,20.615c-54.221,6.61-108.516,12.604-162.763,19.009c-17.2,2.03-34.337,4.577-51.522,6.731
		c-3.945,0.494-7.97,0.383-11.959,0.48c-5.564,0.137-10.609-3.69-11.27-8.817c-5.445-42.292-10.934-84.578-16.2-126.893
		c-7.241-58.179-14.36-116.373-21.413-174.575c-3.847-31.75-7.406-63.535-11.183-95.294c-1.101-9.251-2.298-18.501-3.837-27.687
		c-1.234-7.364-7.248-11.967-13.83-11.252c-18.545,2.017-37.125,3.752-55.627,6.101c-31.717,4.026-63.342,8.781-95.08,12.604
		c-54.232,6.532-108.555,12.314-162.779,18.908c-54.22,6.592-108.334,14.05-162.553,20.653
		c-54.225,6.604-108.544,12.428-162.776,18.966c-33.06,3.985-66.021,8.77-99.054,12.985c-8.745,1.116-14.708,5.536-18.582,13.201
		c-21.637,42.797-43.273,85.593-64.907,128.392c-51.683,102.244-103.358,204.492-155.056,306.729
		c-4.811,9.512-9.189,19.317-14.893,28.271c-2.631,4.131-7.658,7.136-12.193,9.522c-3.389,1.782-7.697,2-11.65,2.494
		c-22.473,2.807-44.953,5.561-67.447,8.197c-76.746,8.998-153.512,17.824-230.244,26.936
		c-66.148,7.854-132.281,15.854-198.387,24.072c-75.354,9.368-150.662,19.106-226.012,28.521
		c-9.234,1.153-18.592,1.364-27.898,1.893c-4.055,0.23-8.025-4.464-6.479-7.596c5.298-10.726,10.452-21.532,16.1-32.073
		c106.322-198.46,212.698-396.892,319.082-595.318c212.77-396.857,425.568-793.7,638.311-1190.573
		c31.492-58.75,64.648-116.443,102.434-171.479c54.781-79.79,120.855-148.869,195.636-209.911
		c23.778-19.41,49.276-36.355,75.095-52.945c60.394-38.805,126.824-61.299,196.883-73.992c20.945-3.795,42.238-5.727,63.408-8.204
		c31.76-3.717,63.576-6.946,95.32-10.784c31.738-3.837,63.411-8.226,95.127-12.261c25.111-3.195,50.23-6.339,75.369-9.299
		c76.742-9.035,153.514-17.814,230.237-27.006c42.325-5.07,84.577-10.764,126.861-16.177c0.03,0.248,0.062,0.495,0.091,0.743
		c10.565-1.329,21.125-2.697,31.697-3.961c2.881-0.344,7.848,3.754,8.566,7.037c1.707,7.793,3.875,15.54,4.85,23.431
		c6.199,50.256,12.059,100.555,18.16,150.824c7.064,58.203,14.312,116.384,21.389,174.585
		c6.273,51.59,12.366,103.203,18.643,154.793c7.08,58.2,14.348,116.378,21.402,174.582c6.413,52.915,12.57,105.862,18.985,158.777
		c6.735,55.559,13.636,111.097,20.477,166.642c3.42,27.774,6.893,55.542,10.295,83.318c7.776,63.486,15.649,126.961,23.245,190.469
		c6.488,54.248,12.438,108.562,19.006,162.8c6.408,52.913,13.438,105.749,19.938,158.65c6.501,52.905,12.625,105.857,19.026,158.775
		c6.723,55.559,13.576,111.102,20.376,166.651c6.313,51.586,12.686,103.164,18.877,154.765c0.79,6.583,0.711,13.275,0.91,19.921
		C7208.233,2674.126,7203.846,2678.623,7198.174,2679.421z M8440.444,2139.508c0.231,0.893,1.277,1.82,2.186,2.229
		c1.166,0.524,2.603,0.89,3.849,0.733c52.87-6.629,105.724-13.383,158.598-19.986c27.765-3.468,55.549-6.779,83.344-9.993
		c30.442-3.521,60.939-6.595,91.354-10.331c31.733-3.897,63.358-8.673,95.103-12.491c54.234-6.524,108.553-12.348,162.779-18.937
		c54.223-6.588,108.346-13.992,162.566-20.601c54.225-6.609,108.543-12.458,162.771-19.044
		c54.221-6.586,108.367-13.791,162.574-20.492c31.736-3.923,63.539-7.316,95.295-11.094c18.52-2.202,36.984-4.903,55.518-6.961
		c9.254-1.027,18.607-1.154,27.922-1.596c2.945-0.139,7.426,5.062,7.092,7.941c-0.461,3.943-0.404,8.009-1.363,11.823
		c-29.543,117.548-59.17,235.075-88.855,352.589c-1.303,5.158-2.586,10.535-5.164,15.082c-1.746,3.08-5.404,5.873-8.809,7.043
		c-6.254,2.149-12.887,3.52-19.473,4.313c-30.422,3.669-60.887,7-91.332,10.505c-26.473,3.048-52.963,5.982-79.404,9.29
		c-75.35,9.425-150.654,19.23-226.027,28.467c-54.221,6.645-108.553,12.371-162.783,18.954
		c-54.223,6.581-108.359,13.867-162.57,20.556c-31.738,3.915-63.562,7.104-95.313,10.912c-31.746,3.808-63.446,7.985-95.167,11.994
		c-26.437,3.341-52.856,6.823-79.316,9.968c-30.432,3.616-60.899,6.93-99.045,11.244c-24.033,3.093-55.74,7.21-87.46,11.242
		c-25.111,3.193-50.219,6.441-75.36,9.385c-54.258,6.351-108.57,12.253-162.8,18.842c-54.223,6.587-108.34,14.035-162.56,20.647
		c-54.227,6.614-108.549,12.445-162.78,19.019c-54.224,6.571-108.376,13.734-162.584,20.446
		c-30.413,3.766-60.883,7.069-91.312,10.714c-33.069,3.96-66.109,8.173-99.186,12.087c-22.49,2.661-45.014,5.034-67.533,7.447
		c-4.857,0.521-9.492-5.62-8.188-11.017c7.508-31.064,15.146-62.097,22.702-93.15c21.408-87.997,43.009-175.949,63.95-264.058
		c2.928-12.32,8.402-22.027,17.269-30.649c38.234-37.18,76.257-74.576,114.38-111.871
		c336.438-329.133,672.877-658.265,1009.321-987.391c143.919-140.787,287.872-281.54,431.735-422.384
		c9.5-9.301,18.48-19.146,27.5-28.924c0.889-0.963,1.334-1.356,1.493-1.484c-0.339,0.217-1.808,0.906-2.181-2.27
		c-0.133-1.141-0.875-3.052-1.547-3.148c-3.906-0.562-7.941-1.297-11.809-0.867c-39.727,4.415-79.439,8.95-119.133,13.642
		c-31.754,3.753-63.477,7.758-95.213,11.67c-35.699,4.4-71.396,8.819-107.094,13.233c-26.447,3.271-52.85,6.979-79.35,9.738
		c-88.853,9.252-176.964,23.246-264.349,41.627c-107.024,22.512-211.87,52.359-312.661,95.421
		c-45.387,19.392-89.348,41.539-131.168,67.781c-61.455,38.564-116.41,84.534-160.963,142.263
		c-4.062,5.263-7.934,10.997-13.051,15.056c-13.023,10.332-27.273,16.581-44.318,9.279c-7.549-3.234-12.71-11.485-10.66-19.078
		c1.375-5.094,2.98-10.202,5.18-14.983c48.467-105.405,101.663-208.306,163.222-306.742
		c59.341-94.891,133.081-176.468,224.339-241.747c63.243-45.238,132.23-79.58,204.659-107.283
		c72.288-27.65,146.784-47.764,222.346-64.015c80.757-17.369,162.078-31.524,244.097-41.599c29.086-3.573,58.07-7.972,87.129-11.761
		c6.574-0.857,13.281-0.645,19.916-1.096c17.279-1.175,34.631-1.78,51.814-3.794c63.51-7.44,126.98-15.235,190.436-23.134
		c54.205-6.747,108.338-14.068,162.561-20.678c54.225-6.609,108.545-12.423,162.773-19.005
		c54.223-6.581,108.375-13.743,162.57-20.529c27.766-3.477,55.551-6.775,83.344-9.996c31.766-3.681,63.582-6.946,95.32-10.836
		c30.412-3.728,60.715-8.346,91.135-12c54.236-6.515,108.521-12.617,162.791-18.85c15.803-1.814,31.609-3.638,47.453-4.982
		c1.582-0.135,5.027,3.163,4.91,4.655c-0.621,7.922-1.418,15.953-3.395,23.627c-30.898,119.941-62.203,239.779-92.746,359.812
		c-3.469,13.634-9.672,24.22-19.482,33.808c-67.707,66.159-135.158,132.584-202.768,198.843
		c-417.09,408.755-834.201,817.491-1251.314,1226.225c-37.141,36.395-74.384,72.682-111.469,109.133
		c-5.66,5.562-10.779,11.688-15.963,17.712C8440.03,2136.465,8440.132,2138.299,8440.444,2139.508z"/>
	<path fill-rule="evenodd" clip-rule="evenodd" fill="#F0F0F5" d="M15017.43,7.488c-15.996,0.174-31.988,0.5-47.982,0.5
		c-646.502,0.025-1293.006,0.023-1939.51,0.009c-11.994,0-23.992-0.038-35.982-0.358c-6.873-0.184-12.893-2.921-17.955-7.639
		c680,0,1360,0,2040,0c0.648,1.601,1.449,3.162,1.883,4.819C15018.09,5.615,15017.602,6.593,15017.43,7.488z"/>
	<path fill-rule="evenodd" clip-rule="evenodd" fill="#04245E" d="M15201.092,2361.752
		c-96.682,10.672-193.373,21.259-290.057,31.896c-29.137,3.206-58.273,6.421-87.404,9.7c-59.58,6.705-119.135,13.611-178.732,20.145
		c-59.602,6.532-119.262,12.523-178.859,19.095c-59.598,6.572-119.125,13.778-178.727,20.32
		c-60.926,6.688-121.918,12.778-182.857,19.36c-70.207,7.584-140.389,15.412-210.58,23.147c-29.133,3.211-58.27,6.425-87.398,9.696
		c-60.908,6.841-121.799,13.855-182.723,20.547c-59.602,6.545-119.258,12.609-178.855,19.192
		c-59.594,6.582-119.123,13.753-178.723,20.284c-59.6,6.532-119.258,12.513-178.875,18.891c-29.146,3.119-58.246,6.646-87.379,9.896
		c-60.914,6.794-121.826,13.609-182.756,20.264c-58.281,6.364-116.6,12.382-174.869,18.836
		c-59.592,6.602-119.123,13.749-178.721,20.287c-59.6,6.538-119.266,12.462-178.873,18.937
		c-95.371,10.359-190.719,20.947-286.074,31.451c-29.137,3.211-58.277,6.423-87.406,9.711
		c-59.576,6.723-119.129,13.672-178.727,20.201c-59.598,6.528-119.268,12.428-178.859,19.02
		c-83.43,9.229-166.793,19.072-250.232,28.232c-84.764,9.306-169.588,18.041-254.373,27.151
		c-29.141,3.131-58.238,6.693-87.363,9.965c-37.074,4.164-74.148,8.292-111.234,12.329c-34.439,3.748-68.91,7.223-103.34,11.059
		c-59.586,6.638-119.135,13.639-178.736,20.157s-119.262,12.498-178.869,18.956c-68.879,7.463-137.727,15.186-206.586,22.807
		c-30.457,3.37-60.916,6.735-91.367,10.16c-59.582,6.701-119.141,13.615-178.742,20.119
		c-59.605,6.503-119.281,12.352-178.871,18.955c-83.426,9.245-166.781,19.129-250.207,28.349
		c-60.916,6.732-121.934,12.56-182.848,19.285c-84.758,9.358-169.434,19.416-254.195,28.73
		c-84.758,9.314-169.586,18.026-254.369,27.12c-29.143,3.125-58.245,6.63-87.37,9.923c-35.742,4.042-71.479,8.129-107.237,12.038
		c-35.761,3.908-71.561,7.479-107.314,11.452c-59.589,6.622-119.135,13.627-178.735,20.135
		c-59.602,6.508-119.272,12.371-178.866,18.945c-59.591,6.574-119.09,13.968-178.686,20.483
		c-84.768,9.268-169.59,18.024-254.381,27.075c-27.82,2.97-55.624,6.11-83.424,9.284c-35.738,4.078-71.443,8.476-107.203,12.363
		c-59.602,6.479-119.26,12.449-178.851,19.03c-59.589,6.58-119.095,13.895-178.688,20.431
		c-60.923,6.682-121.938,12.521-182.856,19.246c-83.426,9.211-166.771,19.156-250.2,28.328
		c-84.756,9.317-169.578,18.03-254.361,27.107c-29.145,3.12-58.253,6.557-87.381,9.819c-38.396,4.302-76.809,8.471-115.19,12.895
		c-29.101,3.354-58.165,7.018-87.246,10.544c-10.843,7.022-23.013,4.522-34.75,4.847c-13.26,0.638-26.622,0.651-39.843,2.029
		c-50.357,5.249-100.672,10.901-150.994,16.48c-27.81,3.083-55.6,6.337-83.402,9.483c-35.744,4.046-71.479,8.174-107.241,12.059
		c-34.44,3.74-68.932,7.012-103.36,10.851c-60.912,6.793-121.771,14.071-182.695,20.753
		c-59.601,6.536-119.282,12.337-178.879,18.909c-59.594,6.571-119.093,13.994-178.692,20.51
		c-84.768,9.267-169.593,18.009-254.385,27.051c-27.823,2.968-55.626,6.124-83.429,9.278
		c-59.574,6.76-119.119,13.777-178.719,20.307s-119.277,12.352-178.873,18.926c-59.592,6.574-119.105,13.854-178.684,20.537
		c-71.5,8.021-143.016,15.891-214.557,23.53c-39.811,4.252-30.75-1.452-58.565,33.15c-1.67,2.077-3.295,4.191-4.947,6.282
		c-196.255,248.312-434.2,446.336-715.505,591.668c-178.595,92.268-366.492,158.395-564.072,196.246
		c-47.077,9.018-94.455,16.465-141.693,24.634c-5.038,3.983-11.013,4.771-17.137,4.954c-7.281,0.217-14.564,0.344-21.786,0.506
		c-21.198,1.253-42.468,2.361-63.713,3.82c-13.284,0.911-26.509,2.965-39.799,3.461c-133.267,4.977-266.261,4.284-398.896-13.217
		c-80.638-10.639-160.627-24.364-239.495-43.788c-295.016-72.658-562.895-201.989-803.455-387.649
		c-27.408-21.153-54-43.369-80.835-65.258c-6.558-5.35-13.665-7.992-22.079-7.07c-50.299,5.516-100.602,10.991-150.895,16.553
		c-26.469,2.928-52.919,6.025-79.382,9.005c-37.048,4.171-74.09,8.4-111.154,12.426c-34.421,3.738-68.89,7.043-103.298,10.891
		c-59.549,6.661-119.043,13.818-178.607,20.349c-59.564,6.53-119.2,12.4-178.766,18.917c-11.87,1.299-23.564,4.21-35.339,6.378
		c-0.229,10.779-0.581,21.558-0.813,32.336c0.232-10.778,0.583-21.557,0.812-32.336C10.925,4032.605,5.463,4032.303,0,4032
		c0,240,0,480,0,720c0,96,0,192,0,288c90.667,0,181.333,0,272,0c4944,0,9888,0,14832,0c85.332,0,170.668,0,256,0
		c0-85.334,0-170.666,0-256c0-813.333,0-1626.667,0-2440C15307.031,2349.922,15254.068,2355.903,15201.092,2361.752z
		 M13.669,4765.011c0.542,3.947,1.084,7.895,1.626,11.843C11.722,4773.321,10.538,4769.462,13.669,4765.011z"/>
	<path fill-rule="evenodd" clip-rule="evenodd" fill="#F0F0F5" d="M11560,0c-5.422,6.017-12.484,7.978-20.25,8.118
		c-8.762,0.158-17.523,0.245-26.287,0.363c0.525-2.031,1.375-4.058,1.404-6.096c0.012-0.782-1.855-1.59-2.867-2.386
		C11528,0,11544,0,11560,0z"/>
	<path fill-rule="evenodd" clip-rule="evenodd" fill="#F0F0F5" d="M15354.645,231.901c1.793-0.339,3.578-0.306,5.355,0.099
		c0,10.667,0,21.333,0,32c-0.852-4.719,1.721-9.743-2.223-14.278C15353.346,244.625,15353.535,238.229,15354.645,231.901z"/>
	<path fill-rule="evenodd" clip-rule="evenodd" fill="#C4181D" d="M4175.783,2388.262c0,31.995,0.139,63.992-0.051,95.987
		c-0.119,19.959,0.879,40.041-5.537,59.476c-1.229,3.719-1.686,7.938-1.438,11.859c2.116,33.591-7.226,66.056-9.653,99.212
		c-1.258,17.174-4.664,34.253-7.977,51.204c-12.496,63.958-23.492,128.26-43.141,190.615c-9.605,30.478-18.276,61.255-28.185,91.631
		c-19.845,60.841-42.961,120.406-70.661,178.168c-9.208,19.202-16.132,39.553-26.031,58.361
		c-35.987,68.373-73.215,136.027-116.431,200.264c-29.755,44.228-59.814,88.248-92.975,129.934
		c-19.852,24.954-38.497,51.028-61.498,73.476c-9.474,9.246-17.247,20.221-25.955,30.27c-6.972,8.047-13.868,16.198-21.353,23.756
		c-28.141,28.419-56.339,56.787-84.889,84.794c-9.47,9.29-20.029,17.475-30.158,26.086c-3.041,2.585-6.727,4.516-9.408,7.405
		c-22.766,24.534-50.23,43.684-75.539,65.24c-26.293,22.396-54.615,42.494-82.717,62.669
		c-55.244,39.66-112.672,76.206-172.123,109.004c-57.111,31.508-115.579,60.636-175.791,86.27
		c-56.465,24.037-113.624,45.991-172.057,64.436c-55.828,17.623-111.932,34.59-169.79,44.705
		c-5.229,0.914-10.277,2.811-15.468,3.998c-37.607,8.601-75.361,16.363-113.918,19.398c-29.566,8.854-60.786,5.904-90.747,12.925
		c-14.026,3.287-29.146,2.116-43.782,2.555c-26.593,0.796-53.342-1.007-79.485,6.163c-5.035,1.381-10.589,1.168-15.905,1.18
		c-33.329,0.079-66.658,0.07-99.986-0.064c-5.311-0.021-10.865,0.043-15.885-1.399c-23.49-6.751-47.565-5.321-71.506-5.797
		c-18.644-0.37-37.354,0.384-55.492-5.426c-3.755-1.202-7.861-1.706-11.823-1.802c-60.184-1.471-118.82-14.572-177.295-26.447
		c-58.601-11.9-116.804-26.494-173.878-45.146c-62.081-20.288-123.611-41.945-183.963-66.904
		c-9.845-4.07-19.524-8.594-29.064-13.342c-47.735-23.762-95.581-47.314-143.004-71.686c-21.301-10.946-42.043-23.086-62.457-35.631
		c-65.855-40.469-128.846-85.14-190.055-132.271c-22.116-17.03-42.284-36.575-64.203-53.88
		c-63.035-49.765-115.763-110.152-172.682-166.219c-26.17-33.61-56.449-63.756-81.901-98.013
		c-36.551-49.193-73.28-98.243-105.808-150.251c-30.373-48.562-59.838-97.59-86.278-148.521
		c-38.146-73.476-70.445-149.427-99.894-226.63c-10.9-28.575-19.247-58.148-28.178-87.443c-6.598-21.64-11.505-43.809-18.484-65.314
		c-15.662-48.262-24.452-98.145-34.311-147.661c-5.159-25.913-11.406-52.062-11.555-78.882
		c-10.245-33.458-4.67-69.006-13.627-102.729c-2.34-8.81-1.539-18.553-1.549-27.867c-0.105-87.986-0.082-175.972-0.072-263.958
		c0.002-14.684,0.579-29.26,4.594-43.595c1.776-6.34,2.925-13.2,2.581-19.73c-1.631-30.96,6.791-60.825,10.347-91.136
		c4.634-39.504,14.345-78.429,22.212-117.534c14.467-71.909,34.33-142.392,58.746-211.49c14.187-40.149,29.426-79.93,45.852-119.312
		c25.71-61.643,55.927-121.031,87.35-179.725c30.779-57.493,64.073-113.704,103.608-165.915
		c16.875-22.284,32.061-45.855,49.086-68.018c17.823-23.2,37.319-45.109,55.408-68.113
		c49.625-63.111,109.484-116.401,165.625-173.25c18.702-18.938,37.016-38.453,59.754-52.892
		c33.955-32.15,72.723-58.156,109.702-86.479c37.103-28.418,76.059-54.112,115.591-78.709
		c48.601-30.24,98.414-58.589,149.668-84.342c52.454-26.356,106.556-48.833,160.863-70.881
		c91.574-37.178,186.487-63.692,282.672-85.383c38.794-8.748,77.635-18.897,117.809-20.407c25.487-8.697,52.831-5.642,78.732-12.618
		c11.33-3.052,23.814-2.078,35.788-2.41c19.968-0.553,39.876-0.2,59.528-5.568c8.805-2.405,18.518-1.961,27.82-1.987
		c55.992-0.157,111.986-0.15,167.979-0.001c9.306,0.025,19.038-0.532,27.825,1.891c19.646,5.415,39.548,5.284,59.521,5.611
		c13.345,0.219,26.622,0.617,39.594,4.494c5.061,1.513,10.44,2.529,15.708,2.689c34.752,1.054,68.396,9.439,102.527,14.703
		c54.013,8.329,107.123,20.677,159.823,34.585c54.051,14.265,107.976,29.251,159.757,50.935
		c23.326,9.769,47.539,17.428,70.834,27.264c36.796,15.535,73.448,31.477,109.636,48.371
		c54.394,25.395,105.406,57.01,157.143,87.276c58.748,34.37,113.66,74.373,167.845,115.289
		c24.364,18.398,49.165,36.582,70.74,58.499c2.805,2.848,5.569,5.826,8.768,8.179c43.194,31.773,78.307,72.173,116.604,109.164
		c10.545,10.185,20.196,21.317,30.983,31.225c28.597,26.261,51.461,57.594,76.612,86.828c24.261,28.199,45.147,59.273,68.18,88.562
		c28.895,36.743,54.215,75.984,78.774,115.538c31.602,50.896,61.445,102.929,87.891,156.832
		c19.378,39.497,36.555,79.893,54.04,120.234c22.332,51.524,39.885,104.568,57.026,157.802
		c22.043,68.45,40.705,137.84,53.002,208.817c4.309,24.879,9.467,49.61,13.809,74.484c1.367,7.835,1.108,15.94,2.005,23.876
		c1.192,10.556,2.736,21.072,4.243,31.59c0.376,2.627,1.57,5.168,1.732,7.789c1.236,19.938,0.728,40.143,3.895,59.758
		c2.98,18.469,5.958,36.702,5.805,55.468c-0.283,34.66-0.081,69.324-0.081,103.986
		C4175.746,2388.262,4175.765,2388.262,4175.783,2388.262z M810.994,2388.832c2.229,814.172,659.056,1474.678,1476.745,1473.904
		c831.982-0.787,1475.167-678.586,1474.986-1475.551c-0.183-809.531-658.332-1477.134-1478.636-1475.99
		C1481.676,912.313,811.901,1561.83,810.994,2388.832z"/>
	<path fill-rule="evenodd" clip-rule="evenodd" fill="#FFFDFD" d="M6912.24,567.06c10.565-1.329,21.125-2.697,31.697-3.961
		c2.881-0.344,7.848,3.754,8.566,7.037c1.707,7.793,3.875,15.54,4.85,23.431c6.199,50.256,12.059,100.555,18.16,150.824
		c7.064,58.203,14.312,116.384,21.389,174.585c6.273,51.59,12.366,103.203,18.643,154.793c7.08,58.2,14.348,116.378,21.402,174.582
		c6.413,52.915,12.57,105.862,18.985,158.777c6.735,55.559,13.636,111.097,20.477,166.642c3.42,27.774,6.893,55.542,10.295,83.318
		c7.776,63.486,15.649,126.961,23.245,190.469c6.488,54.248,12.438,108.562,19.006,162.8c6.408,52.913,13.438,105.749,19.938,158.65
		c6.501,52.905,12.625,105.857,19.026,158.775c6.723,55.559,13.576,111.102,20.376,166.651
		c6.313,51.586,12.686,103.164,18.877,154.765c0.79,6.583,0.711,13.275,0.91,19.921c0.15,5.007-4.237,9.504-9.909,10.302
		c-17.152,2.415-34.288,4.955-51.467,7.17c-21.141,2.726-42.307,5.262-63.479,7.724c-54.259,6.308-108.56,12.271-162.784,18.857
		c-54.223,6.588-108.343,14.007-162.562,20.615c-54.221,6.61-108.516,12.604-162.763,19.009c-17.2,2.03-34.337,4.577-51.522,6.731
		c-3.945,0.494-7.97,0.383-11.959,0.48c-5.564,0.137-10.609-3.69-11.27-8.817c-5.445-42.292-10.934-84.578-16.2-126.893
		c-7.241-58.179-14.36-116.373-21.413-174.575c-3.847-31.75-7.406-63.535-11.183-95.294c-1.101-9.251-2.298-18.501-3.837-27.687
		c-1.234-7.364-7.248-11.967-13.83-11.252c-18.545,2.017-37.125,3.752-55.627,6.101c-31.717,4.026-63.342,8.781-95.08,12.604
		c-54.232,6.532-108.555,12.314-162.779,18.908c-54.22,6.592-108.334,14.05-162.553,20.653
		c-54.225,6.604-108.544,12.428-162.776,18.966c-33.06,3.985-66.021,8.77-99.054,12.985c-8.745,1.116-14.708,5.536-18.582,13.201
		c-21.637,42.797-43.273,85.593-64.907,128.392c-51.683,102.244-103.358,204.492-155.056,306.729
		c-4.811,9.512-9.189,19.317-14.893,28.271c-2.631,4.131-7.658,7.136-12.193,9.522c-3.389,1.782-7.697,2-11.65,2.494
		c-22.473,2.807-44.953,5.561-67.447,8.197c-76.746,8.998-153.512,17.824-230.244,26.936
		c-66.148,7.854-132.281,15.854-198.387,24.072c-75.354,9.368-150.662,19.106-226.012,28.521
		c-9.234,1.153-18.592,1.364-27.898,1.893c-4.055,0.23-8.025-4.464-6.479-7.596c5.298-10.726,10.452-21.532,16.1-32.073
		c106.322-198.46,212.698-396.892,319.082-595.318c212.77-396.857,425.568-793.7,638.311-1190.573
		c31.492-58.75,64.648-116.443,102.434-171.479c54.781-79.79,120.855-148.869,195.636-209.911
		c23.778-19.41,49.276-36.355,75.095-52.945c60.394-38.805,126.824-61.299,196.883-73.992c20.945-3.795,42.238-5.727,63.408-8.204
		c31.76-3.717,63.576-6.946,95.32-10.784c31.738-3.837,63.411-8.226,95.127-12.261c25.111-3.195,50.23-6.339,75.369-9.299
		c76.742-9.035,153.514-17.814,230.237-27.006c42.325-5.07,84.577-10.764,126.861-16.177
		C6912.18,566.564,6912.211,566.812,6912.24,567.06z M6431.475,1915.152c-6.107-51.563-12.055-103.147-18.363-154.687
		c-6.633-54.185-13.807-108.302-20.379-162.493c-6.573-54.193-12.559-108.457-19.048-162.66
		c-7.438-62.132-15.163-124.229-22.73-186.346c-3.06-25.113-5.854-50.261-9.162-75.34c-1.036-7.854-3.296-15.551-5.153-23.281
		c-0.291-1.211-1.759-3.264-2.131-3.148c-2.258,0.699-5.326,1.341-6.342,3.057c-4.739,8.005-9.104,16.252-13.234,24.595
		c-128.725,260.042-257.405,520.104-386.09,780.167c-2.951,5.965-5.969,11.9-8.732,17.952c-1.648,3.605-2.787,7.439-4.287,11.117
		c-1.465,3.587,1.896,7.312,6.543,6.79c18.503-2.08,36.977-4.424,55.473-6.558c31.741-3.663,63.521-6.999,95.23-10.911
		c54.164-6.683,108.258-13.943,162.434-20.518c54.184-6.576,108.445-12.495,162.639-18.99c9.211-1.104,18.295-3.457,27.345-5.624
		c4.445-1.064,5.354-5.204,5.954-9.13C6431.639,1917.843,6431.471,1916.485,6431.475,1915.152z"/>
	<path fill-rule="evenodd" clip-rule="evenodd" fill="#FFFDFD" d="M8496.771,2521.627c-24.033,3.093-55.74,7.21-87.46,11.242
		c-25.111,3.193-50.219,6.441-75.36,9.385c-54.258,6.351-108.57,12.253-162.8,18.842c-54.223,6.587-108.34,14.035-162.56,20.647
		c-54.227,6.614-108.549,12.445-162.78,19.019c-54.224,6.571-108.376,13.734-162.584,20.446
		c-30.413,3.766-60.883,7.069-91.312,10.714c-33.069,3.96-66.109,8.173-99.186,12.087c-22.49,2.661-45.014,5.034-67.533,7.447
		c-4.857,0.521-9.492-5.62-8.188-11.017c7.508-31.064,15.146-62.097,22.702-93.15c21.408-87.997,43.009-175.949,63.95-264.058
		c2.928-12.32,8.402-22.027,17.269-30.649c38.234-37.18,76.257-74.576,114.38-111.871
		c336.438-329.133,672.877-658.265,1009.321-987.391c143.919-140.787,287.872-281.54,431.735-422.384
		c9.5-9.301,18.48-19.146,27.5-28.924c3.605-3.908-0.066,1.541-0.688-3.754c-0.133-1.141-0.875-3.052-1.547-3.148
		c-3.906-0.562-7.941-1.297-11.809-0.867c-39.727,4.415-79.439,8.95-119.133,13.642c-31.754,3.753-63.477,7.758-95.213,11.67
		c-35.699,4.4-71.396,8.819-107.094,13.233c-26.447,3.271-52.85,6.979-79.35,9.738c-88.853,9.252-176.964,23.246-264.349,41.627
		c-107.024,22.512-211.87,52.359-312.661,95.421c-45.387,19.392-89.348,41.539-131.168,67.781
		c-61.455,38.564-116.41,84.534-160.963,142.263c-4.062,5.263-7.934,10.997-13.051,15.056
		c-13.023,10.332-27.273,16.581-44.318,9.279c-7.549-3.234-12.71-11.485-10.66-19.078c1.375-5.094,2.98-10.202,5.18-14.983
		c48.467-105.405,101.663-208.306,163.222-306.742c59.341-94.891,133.081-176.468,224.339-241.747
		c63.243-45.238,132.23-79.58,204.659-107.283c72.288-27.65,146.784-47.764,222.346-64.015
		c80.757-17.369,162.078-31.524,244.097-41.599c29.086-3.573,58.07-7.972,87.129-11.761c6.574-0.857,13.281-0.645,19.916-1.096
		c17.279-1.175,34.631-1.78,51.814-3.794c63.51-7.44,126.98-15.235,190.436-23.134c54.205-6.747,108.338-14.068,162.561-20.678
		c54.225-6.609,108.545-12.423,162.773-19.005c54.223-6.581,108.375-13.743,162.57-20.529c27.766-3.477,55.551-6.775,83.344-9.996
		c31.766-3.681,63.582-6.946,95.32-10.836c30.412-3.728,60.715-8.346,91.135-12c54.236-6.515,108.521-12.617,162.791-18.85
		c15.803-1.814,31.609-3.638,47.453-4.982c1.582-0.135,5.027,3.163,4.91,4.655c-0.621,7.922-1.418,15.953-3.395,23.627
		c-30.898,119.941-62.203,239.779-92.746,359.812c-3.469,13.634-9.672,24.22-19.482,33.808
		c-67.707,66.159-135.158,132.584-202.768,198.843c-417.09,408.755-834.201,817.491-1251.314,1226.225
		c-37.141,36.395-74.384,72.682-111.469,109.133c-5.66,5.562-10.779,11.688-15.963,17.712c-0.692,0.806-0.591,2.64-0.278,3.849
		c0.231,0.893,1.277,1.82,2.186,2.229c1.166,0.524,2.603,0.89,3.849,0.733c52.87-6.629,105.724-13.383,158.598-19.986
		c27.765-3.468,55.549-6.779,83.344-9.993c30.442-3.521,60.939-6.595,91.354-10.331c31.733-3.897,63.358-8.673,95.103-12.491
		c54.234-6.524,108.553-12.348,162.779-18.937c54.223-6.588,108.346-13.992,162.566-20.601
		c54.225-6.609,108.543-12.458,162.771-19.044c54.221-6.586,108.367-13.791,162.574-20.492c31.736-3.923,63.539-7.316,95.295-11.094
		c18.52-2.202,36.984-4.903,55.518-6.961c9.254-1.027,18.607-1.154,27.922-1.596c2.945-0.139,7.426,5.062,7.092,7.941
		c-0.461,3.943-0.404,8.009-1.363,11.823c-29.543,117.548-59.17,235.075-88.855,352.589c-1.303,5.158-2.586,10.535-5.164,15.082
		c-1.746,3.08-5.404,5.873-8.809,7.043c-6.254,2.149-12.887,3.52-19.473,4.313c-30.422,3.669-60.887,7-91.332,10.505
		c-26.473,3.048-52.963,5.982-79.404,9.29c-75.35,9.425-150.654,19.23-226.027,28.467c-54.221,6.645-108.553,12.371-162.783,18.954
		c-54.223,6.581-108.359,13.867-162.57,20.556c-31.738,3.915-63.562,7.104-95.313,10.912c-31.746,3.808-63.446,7.985-95.167,11.994
		c-26.437,3.341-52.856,6.823-79.316,9.968C8565.385,2513.999,8534.917,2517.312,8496.771,2521.627z"/>
	<path fill-rule="evenodd" clip-rule="evenodd" fill="#434D7C" d="M2541.025,4442.631c-5.038,3.984-11.013,4.772-17.137,4.955
		c-7.281,0.217-14.564,0.344-21.786,0.506C2514.576,4442.417,2527.562,4440.822,2541.025,4442.631z"/>
	<path fill-rule="evenodd" clip-rule="evenodd" fill="#434D7C" d="M6174.312,3355.102c-10.843,7.022-23.013,4.522-34.75,4.847
		C6150.645,3354.564,6162.244,3353.154,6174.312,3355.102z"/>
	<path fill-rule="evenodd" clip-rule="evenodd" fill="#434D7C" d="M7936.053,3695.244c-8.047-0.208-16.092-0.415-24.136-0.623
		C7923.993,3686.67,7923.993,3686.67,7936.053,3695.244z"/>
	<path fill-rule="evenodd" clip-rule="evenodd" fill="#434D7C" d="M7794.802,3640.262c-0.394-5.506-0.788-11.013-1.182-16.52
		C7800.256,3631.891,7800.256,3631.891,7794.802,3640.262z"/>
	<path fill-rule="evenodd" clip-rule="evenodd" fill="#434D7C" d="M15.295,4776.854c-3.575-3.533-4.758-7.395-1.623-11.848
		C14.21,4768.952,14.752,4772.902,15.295,4776.854z"/>
	<path fill-rule="evenodd" clip-rule="evenodd" fill="#434D7C" d="M7792.326,3718.466c-4.398,0.17-7.178-2.112-8.954-5.907
		C7788.019,3712.016,7790.959,3714.048,7792.326,3718.466z"/>
	<path fill-rule="evenodd" clip-rule="evenodd" fill="#434D7C" d="M7800.461,3726.611c-2.229-2.363-4.457-4.727-6.681-7.086
		C7798.132,3719.891,7800.357,3722.251,7800.461,3726.611z"/>
	<path fill-rule="evenodd" clip-rule="evenodd" fill="#434D7C" d="M7806.734,3738.033c-4.26-2.112-5.834-5.697-5.62-10.258
		C7805.381,3729.887,7807.424,3733.212,7806.734,3738.033z"/>
	<path fill-rule="evenodd" clip-rule="evenodd" fill="#ED1D3B" d="M11258.557,1342.204c-62.123,7.809-124.234,15.706-186.373,23.377
		c-21.152,2.611-42.375,4.662-63.566,6.944c-3.27,0.352-7.883-5.175-6.658-7.985c2.662-6.104,5.205-12.272,8.158-18.236
		c131.805-266.194,263.652-532.368,395.471-798.558c3.49-7.051,5.715-14.9,12.721-19.604c0.941-0.634,3.363-0.905,3.502-0.606
		c1.1,2.385,2.248,4.891,2.584,7.465c5.027,38.314,10.074,76.629,14.836,114.977c7.391,59.503,14.652,119.021,21.814,178.551
		c6.525,54.244,12.73,108.526,19.287,162.767c6.555,54.235,13.389,108.437,20.062,162.658
		c5.861,47.611,11.688,95.227,17.484,142.847c1.156,9.512-2.66,14.036-13.361,15.349c-46.281,5.676-92.592,11.103-138.863,16.852
		c-35.697,4.436-71.348,9.217-107.02,13.844C11258.609,1342.63,11258.582,1342.417,11258.557,1342.204z"/>
	<path fill-rule="evenodd" clip-rule="evenodd" fill="#ED1D3B" d="M14351.672,314.525c1.705,74.942-17.848,144.751-51.895,210.938
		c-16.508,32.089-36.322,62.043-59.074,90.018c-19.328,23.768-38.98,47.271-58.527,70.857
		c-26.781,32.312-59.688,56.535-97.219,75.118c-45.754,22.654-94.336,36.248-144.156,45.361
		c-43.193,7.9-86.836,13.086-130.516,17.939c-54.232,6.026-108.293,13.589-162.459,20.23c-47.555,5.832-95.15,11.322-142.736,16.918
		c-4.949,0.582-10.023-5.185-8.891-10.445c6.152-28.61,12.273-57.23,18.766-85.764c33.666-147.916,67.414-295.812,101.195-443.702
		c12.445-54.483,25.062-108.928,37.613-163.389c0.895-3.889,1.703-7.809,2.852-11.625c1.648-5.49,5.199-9.152,11.094-9.895
		c44.9-5.652,89.803-11.286,134.711-16.878c35.66-4.44,71.328-8.806,106.992-13.219c25.102-3.106,50.195-6.28,75.303-9.347
		c43.602-5.325,87.24-10.345,130.809-15.938c66.811-8.577,123.596,12.168,170.916,59.018c40.402,40,63.145,88.451,65.176,145.841
		C14351.957,295.873,14351.672,305.204,14351.672,314.525z"/>
	<path fill-rule="evenodd" clip-rule="evenodd" fill="#FFFDFD" d="M810.994,2388.832
		c0.907-827.002,670.682-1476.519,1473.096-1477.637c820.304-1.144,1478.453,666.459,1478.636,1475.99
		c0.181,796.965-643.004,1474.764-1474.986,1475.551C1470.05,3863.51,813.224,3203.004,810.994,2388.832z M2733.674,1898.334
		l1.582-1.693l-2.182,0.345c4.35,2.888,8.584,5.972,13.076,8.613c5.593,3.289,5.688-2.366,7.585-5.019
		c-3.114,1.705-7.495,2.92-4.575,7.854c4.684,7.916,10.721,14.557,19.314,18.447c17.354,20.159,34.944,40.122,52.017,60.518
		c38.912,46.487,70.077,97.076,82.136,157.608c1.301,6.524,2.819,13.057,4.909,19.362c3.829,11.553,4.7,23.418,5.248,35.447
		c1.889,41.498-0.87,82.596-10.525,123.061c-7.374,30.908-3.51,60.729,7.847,89.866c16.997,43.613,37.989,85.163,66.246,122.652
		c16.832,22.331,34.599,43.958,51.914,65.927c6.584,8.354,13.795,16.324,19.462,25.266c10.906,17.212,16.961,35.846,15.081,56.803
		c-1.287,14.346-7.166,25.434-18.83,33.539c-20.836,14.479-42.078,28.236-67.202,34.282c-16.374,3.94-28.536,13.883-38.529,26.818
		c-7.511,9.722-6.396,25.058,2.323,32.958c5.896,5.342,12.39,10.028,18.227,15.43c2.87,2.655,5.042,6.146,7.206,9.47
		c4.902,7.53,2.734,19.814-4.61,25.104c-6.471,4.661-13.344,8.761-19.871,13.346c-4.658,3.271-5.352,9.664-1.721,13.439
		c5.532,5.752,11.756,10.966,16.562,17.266c11.467,15.031,7.256,35.227-9.112,44.83c-6.87,4.03-14.312,7.078-21.419,10.72
		c-5.926,3.036-12.065,5.815-17.531,9.555c-8.037,5.498-12.996,13.093-13.19,23.337c-0.255,13.476,1.976,26.369,6.467,39.157
		c8.91,25.369,12.052,51.824,13.032,78.579c1.096,29.916-10.417,55.051-31.792,74.825c-21.926,20.285-48.31,32.979-78.531,35.809
		c-58.767,5.501-116.995,3.278-174.344-12.343c-17.962-4.893-36.491-7.717-54.424-12.7c-14.384-3.997-28.827-4.4-43.504-4.88
		c-16.339-0.535-27.872,7.129-37.556,19.082c-6.844,8.448-10.957,18.213-13.801,28.57c-5.289,19.256-10.916,38.431-15.648,57.824
		c-8.519,34.912-15.507,70.218-28.517,103.906c-1.897,4.915-3.039,10.227-3.794,15.461c-4.755,32.992-8.497,66.054-8.774,99.482
		c-0.169,20.375,4.126,20.416,20.511,19.269c10.621-0.744,21.227-1.964,31.776-3.418c46.319-6.385,91.101-19.14,135.681-32.801
		c88.073-26.989,173.145-60.941,252.694-107.878c6.874-4.056,14.296-7.224,20.988-11.539c33.56-21.643,68.737-41.257,100.081-65.762
		c90.735-70.938,170.169-153.38,239.343-245.522c17.587-23.426,35.153-47.032,50.527-71.915
		c23.093-37.376,44.402-75.86,66.102-114.082c5.231-9.215,9.374-19.104,13.412-28.933c26.357-64.156,43.938-131.231,65.254-197.065
		c1.226-3.785,1.849-7.77,2.695-11.674c9.326-42.992,17.04-86.141,19.945-130.212c6.855-103.96,8.778-207.616-10.311-310.714
		c-4.604-24.863-5.575-50.466-11.146-75.064c-5.865-25.896-15.263-50.988-23.071-76.445c-5.463-17.812-10.791-35.666-16.294-53.467
		c-2.752-8.903-4.913-18.119-8.795-26.522c-20.663-44.722-40.221-90.05-63.041-133.662
		c-70.202-134.162-168.103-246.066-282.989-343.394c-84.911-71.933-179.743-128.568-282.069-171.993
		c-63.672-27.021-128.683-50.928-196.889-64.431c-32.65-6.464-65.257-14.411-98.275-17.499
		c-75.634-7.076-151.438-12.121-227.53-4.688c-30.477,2.977-60.903,5.543-91.3,9.749c-37.014,5.121-73.617,12.174-109.893,20.387
		c-96.604,21.871-187.76,58.832-275.252,104.818c-27.081,14.232-53.12,30.479-79.389,46.217
		c-34.365,20.586-66.926,44.067-97.023,70.236c-37.175,32.322-72.251,67.099-107.601,101.466
		c-38.366,37.3-69.584,80.669-101.948,123.011c-57.91,75.766-100.713,159.979-135.222,248.327
		c-18.377,47.049-33.54,95.439-48.322,143.784c-20.729,67.792-32.944,137.14-32.695,208.371c0.089,25.322-1.212,50.651-0.988,75.969
		c0.353,39.972,1.287,79.941,2.367,119.9c0.251,9.269,2.002,18.505,3.208,27.737c1.379,10.556,3.594,21.049,4.25,31.644
		c1.408,22.743,6.144,44.849,11.727,66.797c6.892,27.096,13.56,54.279,21.576,81.051c11.835,39.522,24.381,78.81,42.752,116.016
		c15.319,31.025,29.484,62.619,44.265,93.912c2.841,6.015,5.738,12.076,9.332,17.649c27.408,42.504,53.058,86.021,83.039,127.016
		c40.356,55.184,87.164,104.213,134.923,152.538c16.814,17.013,35.114,32.801,54.096,47.377
		c39.095,30.021,79.146,58.792,118.718,88.193c15.083,11.206,31.805,19.312,48.934,26.71c5.935,2.562,11.063,0.895,12.997-4.504
		c7.631-21.301,14.248-43.007,22.794-63.929c16.683-40.84,28.567-83.057,38.27-125.949c9.101-40.229,20.321-80.088,22.131-121.665
		c0.23-5.296,1.923-10.524,2.202-15.823c0.562-10.672,6.641-17.073,15.637-21.285c37.837-17.715,70.486-42.6,100.218-71.684
		c9.517-9.309,20.157-17.467,29.729-26.723c15.313-14.808,30.489-29.785,45.113-45.268c12.805-13.557,24.674-27.994,37.133-41.885
		c14.268-15.908,27.4-32.631,38.047-51.21c16.435-17.198,28.965-37.12,40.218-57.91c0.416-0.769-0.411-2.457-1.054-3.466
		c-0.458-0.72-2.1-1.618-2.328-1.42c-17.976,15.621-33.232,33.662-46.939,53.067c-5.778,5.499-11.871,10.705-17.284,16.542
		c-35.292,38.052-69.498,77.238-113.19,106.342c-29.458,27.189-62.733,49.449-94.826,73.223
		c-9.601,7.111-19.889,13.314-30.013,19.694c-7.212,4.546-12.177,3.72-16.602-3.062c-13.11-20.096-27.239-39.342-42.899-57.596
		c-6.797-7.921-10.934-18.179-15.982-27.535c-13.271-24.592-25.562-49.753-39.756-73.795c-18.32-31.029-34.61-63.067-48.938-95.999
		c-26.539-61.003-52.105-122.444-72.285-185.941c-10.489-33.007-19.941-66.41-24.001-100.811
		c-4.053-34.349-4.732-69.079-6.611-103.599c-2.46-45.192,1.326-90.574,8.199-135.435c2.61-17.036,6.354-33.907,12.511-50.287
		c7.482-19.912,12.973-40.563,19.914-60.692c4.761-13.808,9.856-27.577,15.959-40.83c23.477-50.984,54.581-97.524,85.49-144.111
		c11.025-16.617,22.973-32.717,35.58-48.172c62.52-76.642,142.137-131.865,227.238-180.078c4.596-2.604,9.655-4.421,14.577-6.412
		c28.364-11.472,56.872-22.6,85.082-34.436c14.881-6.244,30.247-9.554,46.175-10.942c3.428-0.299,5.217,1.121,5.371,4.433
		c0.492,10.602,1.405,21.203,1.41,31.806c0.09,170.573,0.065,341.146,0.058,511.72c-0.001,7.994-0.117,15.989-0.131,23.984
		c-0.01,5.725-2.505,10.359-6.9,13.637c-8.526,6.356-17.54,12.064-25.999,18.504c-86.429,65.797-123.018,181.813-89.24,286.159
		c40.277,124.429,173.098,205.522,307.218,172.461c7.735-1.906,15.445-3.969,23.042-6.357c5.581-1.755,10.667-0.836,15.005,2.5
		c10.546,8.11,20.675,16.76,31.188,24.915c36.868,28.6,76.273,53.555,114.654,79.992c29.716,20.471,60.816,38.368,93.334,53.711
		c48.108,22.699,96.032,46.146,149.235,55.203c2.591,0.441,5.365,1.223,7.483,2.678c3.147,2.162,6.768,4.565,8.405,7.774
		c2.37,4.644,2.902,10.186,4.646,15.195c7.131,20.491,21.217,33.462,42.521,38.01c22.614,4.828,42.236-0.248,57.258-18.747
		c14.765-18.183,18.271-39.091,9.195-60.053c-17.174-39.672-58.958-43.162-83.409-28.213c-7.599,4.646-13.256,14.942-23.259,12.85
		c-8.878-1.856-17.151-7.043-25.422-11.285c-43.933-22.535-84.981-49.781-125.145-78.284
		c-58.743-41.688-112.506-89.617-167.651-135.796c-3.049-2.554-5.675-5.612-8.489-8.444c-3.249-3.27-3.919-7.664-1.492-10.49
		c7.801-9.086,15.825-17.997,23.291-27.353c30.711-38.484,49.342-82.504,53.905-131.24c8.685-92.748-23.011-169.935-94.155-230.504
		c-6.066-5.165-12.7-9.662-19.006-14.555c-4.372-3.393-7.176-7.822-7.508-13.428c-0.313-5.316-0.327-10.652-0.361-15.981
		c-1.185-185.228-2.365-370.455-3.492-555.684c-0.04-6.636,0.437-13.278,0.771-19.913c0.123-2.452,5.636-7.074,8.466-7.445
		c14.654-1.921,29.228-1.359,43.662,1.699c7.809,1.655,15.419,4.485,23.286,5.582c49.106,6.845,95.93,21.484,141.487,40.618
		c2.448,1.028,5.016,1.775,7.532,2.642c44.146,15.203,86.085,35.239,127.255,57.136c30.773,16.366,58.68,36.954,85.162,59.088
		c19.307,16.137,36.393,35.279,52.617,54.634c11.009,13.135,20.691,28.12,27.661,43.752c15.497,34.756,17.536,69.402-8,101.532
		c-10.103,12.711-16.56,12.991-28.56-0.025c-5.418-5.875-10.45-12.127-16.117-17.745c-18.816-18.656-36.583-38.514-59.239-52.874
		c-5.372-8.916-14.997-12.382-23.087-17.737C2747.413,1896.605,2741.178,1894.036,2733.674,1898.334z"/>
	<path fill-rule="evenodd" clip-rule="evenodd" fill="#ED1D3B" d="M6431.473,1915.152c-0.002,1.333,0.166,2.69-0.033,3.992
		c-0.601,3.926-1.509,8.065-5.954,9.13c-9.05,2.167-18.134,4.521-27.345,5.624c-54.193,6.495-108.455,12.414-162.639,18.99
		c-54.176,6.574-108.27,13.835-162.434,20.518c-31.709,3.912-63.489,7.248-95.23,10.911c-18.496,2.134-36.97,4.478-55.473,6.558
		c-4.646,0.521-8.008-3.203-6.543-6.79c1.5-3.678,2.639-7.512,4.287-11.117c2.764-6.052,5.781-11.987,8.732-17.952
		c128.685-260.062,257.365-520.125,386.09-780.167c4.131-8.343,8.495-16.59,13.234-24.595c1.016-1.716,4.084-2.357,6.342-3.057
		c0.372-0.115,1.84,1.938,2.131,3.148c1.857,7.73,4.117,15.428,5.153,23.281c3.309,25.079,6.103,50.227,9.162,75.34
		c7.567,62.116,15.292,124.214,22.73,186.346c6.489,54.203,12.475,108.467,19.048,162.66
		c6.572,54.191,13.746,108.309,20.379,162.493C6419.42,1812.005,6425.367,1863.589,6431.473,1915.152z"/>
	<path fill-rule="evenodd" clip-rule="evenodd" fill="#C4181D" d="M2776.126,1919.935c22.656,14.36,40.423,34.218,59.239,52.874
		c5.667,5.618,10.699,11.87,16.117,17.745c12,13.017,18.457,12.736,28.56,0.025c25.536-32.13,23.497-66.776,8-101.532
		c-6.97-15.632-16.652-30.617-27.661-43.752c-16.225-19.354-33.311-38.497-52.617-54.634
		c-26.482-22.134-54.389-42.722-85.162-59.088c-41.17-21.896-83.109-41.933-127.255-57.136c-2.517-0.866-5.084-1.613-7.532-2.642
		c-45.558-19.134-92.381-33.773-141.487-40.618c-7.867-1.097-15.478-3.927-23.286-5.582c-14.435-3.059-29.008-3.62-43.662-1.699
		c-2.83,0.371-8.343,4.993-8.466,7.445c-0.334,6.635-0.811,13.277-0.771,19.913c1.127,185.229,2.308,370.456,3.492,555.684
		c0.034,5.329,0.048,10.665,0.361,15.981c0.332,5.605,3.136,10.035,7.508,13.428c6.306,4.893,12.939,9.39,19.006,14.555
		c71.145,60.569,102.84,137.756,94.155,230.504c-4.563,48.736-23.194,92.756-53.905,131.24c-7.466,9.355-15.49,18.267-23.291,27.353
		c-2.427,2.826-1.757,7.221,1.492,10.49c2.814,2.832,5.44,5.891,8.489,8.444c55.146,46.179,108.908,94.108,167.651,135.796
		c40.163,28.503,81.212,55.749,125.145,78.284c8.271,4.242,16.544,9.429,25.422,11.285c10.003,2.093,15.66-8.204,23.259-12.85
		c24.451-14.949,66.235-11.459,83.409,28.213c9.075,20.962,5.569,41.87-9.195,60.053c-15.021,18.499-34.644,23.575-57.258,18.747
		c-21.305-4.548-35.391-17.519-42.521-38.01c-1.744-5.01-2.276-10.552-4.646-15.195c-1.638-3.209-5.258-5.612-8.405-7.774
		c-2.118-1.455-4.893-2.236-7.483-2.678c-53.203-9.057-101.127-32.504-149.235-55.203c-32.518-15.343-63.618-33.24-93.334-53.711
		c-38.381-26.438-77.786-51.393-114.654-79.992c-10.513-8.155-20.642-16.805-31.188-24.915c-4.338-3.336-9.424-4.255-15.005-2.5
		c-7.597,2.389-15.307,4.451-23.042,6.357c-134.12,33.062-266.94-48.032-307.218-172.461
		c-33.777-104.346,2.812-220.362,89.24-286.159c8.459-6.439,17.473-12.147,25.999-18.504c4.396-3.277,6.891-7.912,6.9-13.637
		c0.014-7.995,0.13-15.99,0.131-23.984c0.008-170.573,0.032-341.146-0.058-511.72c-0.005-10.603-0.918-21.204-1.41-31.806
		c-0.154-3.312-1.943-4.731-5.371-4.433c-15.928,1.389-31.294,4.698-46.175,10.942c-28.21,11.836-56.718,22.964-85.082,34.436
		c-4.922,1.991-9.981,3.808-14.577,6.412c-85.102,48.213-164.719,103.437-227.238,180.078
		c-12.607,15.455-24.555,31.555-35.58,48.172c-30.909,46.587-62.014,93.127-85.49,144.111c-6.103,13.253-11.198,27.022-15.959,40.83
		c-6.941,20.129-12.432,40.78-19.914,60.692c-6.156,16.38-9.9,33.251-12.511,50.287c-6.873,44.86-10.659,90.242-8.199,135.435
		c1.879,34.52,2.559,69.25,6.611,103.599c4.06,34.4,13.512,67.804,24.001,100.811c20.18,63.497,45.746,124.938,72.285,185.941
		c14.327,32.932,30.617,64.97,48.938,95.999c14.194,24.042,26.485,49.203,39.756,73.795c5.049,9.356,9.186,19.614,15.982,27.535
		c15.66,18.254,29.789,37.5,42.899,57.596c4.425,6.781,9.39,7.607,16.602,3.062c10.124-6.38,20.412-12.583,30.013-19.694
		c32.093-23.773,65.368-46.033,94.826-73.223c43.692-29.104,77.898-68.29,113.19-106.342c5.413-5.837,11.506-11.043,17.284-16.542
		c3.368,3.241,6.736,6.482,10.104,9.724c-10.647,18.584-23.78,35.307-38.048,51.215c-12.459,13.891-24.328,28.328-37.133,41.885
		c-14.624,15.482-29.8,30.46-45.113,45.268c-9.572,9.256-20.213,17.414-29.729,26.723c-29.731,29.084-62.381,53.969-100.218,71.684
		c-8.996,4.212-15.075,10.613-15.637,21.285c-0.279,5.299-1.972,10.527-2.202,15.823c-1.81,41.577-13.03,81.436-22.131,121.665
		c-9.702,42.893-21.587,85.109-38.27,125.949c-8.546,20.922-15.163,42.628-22.794,63.929c-1.934,5.398-7.062,7.066-12.997,4.504
		c-17.129-7.397-33.851-15.504-48.934-26.71c-39.572-29.401-79.623-58.173-118.718-88.193
		c-18.981-14.576-37.281-30.364-54.096-47.377c-47.759-48.325-94.566-97.354-134.923-152.538
		c-29.981-40.995-55.631-84.512-83.039-127.016c-3.594-5.573-6.491-11.635-9.332-17.649c-14.78-31.293-28.945-62.887-44.265-93.912
		c-18.371-37.206-30.917-76.493-42.752-116.016c-8.017-26.771-14.685-53.955-21.576-81.051
		c-5.583-21.948-10.318-44.054-11.727-66.797c-0.656-10.595-2.871-21.088-4.25-31.644c-1.206-9.232-2.957-18.469-3.208-27.737
		c-1.08-39.959-2.015-79.929-2.367-119.9c-0.224-25.317,1.077-50.646,0.988-75.969c-0.249-71.231,11.967-140.579,32.695-208.371
		c14.782-48.345,29.945-96.735,48.322-143.784c34.509-88.349,77.312-172.562,135.222-248.327
		c32.364-42.342,63.582-85.711,101.948-123.011c35.35-34.367,70.426-69.144,107.601-101.466
		c30.098-26.169,62.658-49.65,97.023-70.236c26.269-15.737,52.308-31.984,79.389-46.217
		c87.492-45.986,178.647-82.947,275.252-104.818c36.275-8.213,72.879-15.266,109.893-20.387c30.396-4.206,60.823-6.772,91.3-9.749
		c76.092-7.434,151.896-2.389,227.53,4.688c33.019,3.088,65.625,11.035,98.275,17.499c68.206,13.503,133.217,37.409,196.889,64.431
		c102.326,43.425,197.158,100.061,282.069,171.993c114.887,97.327,212.787,209.231,282.989,343.394
		c22.82,43.612,42.378,88.94,63.041,133.662c3.882,8.403,6.043,17.619,8.795,26.522c5.503,17.801,10.831,35.654,16.294,53.467
		c7.809,25.457,17.206,50.55,23.071,76.445c5.57,24.599,6.542,50.201,11.146,75.064c19.089,103.098,17.166,206.754,10.311,310.714
		c-2.905,44.071-10.619,87.22-19.945,130.212c-0.847,3.904-1.47,7.889-2.695,11.674c-21.315,65.834-38.896,132.909-65.254,197.065
		c-4.038,9.828-8.181,19.718-13.412,28.933c-21.699,38.222-43.009,76.706-66.102,114.082c-15.374,24.883-32.94,48.489-50.527,71.915
		c-69.174,92.143-148.607,174.584-239.343,245.522c-31.344,24.505-66.521,44.119-100.081,65.762
		c-6.692,4.315-14.114,7.483-20.988,11.539c-79.55,46.937-164.621,80.889-252.694,107.878
		c-44.58,13.661-89.361,26.416-135.681,32.801c-10.55,1.454-21.155,2.674-31.776,3.418c-16.385,1.147-20.68,1.106-20.511-19.269
		c0.277-33.429,4.02-66.49,8.774-99.482c0.755-5.234,1.896-10.546,3.794-15.461c13.01-33.688,19.998-68.994,28.517-103.906
		c4.732-19.394,10.359-38.568,15.648-57.824c2.844-10.357,6.957-20.122,13.801-28.57c9.684-11.953,21.217-19.617,37.556-19.082
		c14.677,0.479,29.12,0.883,43.504,4.88c17.933,4.983,36.462,7.808,54.424,12.7c57.349,15.621,115.577,17.844,174.344,12.343
		c30.222-2.829,56.605-15.523,78.531-35.809c21.375-19.774,32.888-44.909,31.792-74.825c-0.98-26.755-4.122-53.21-13.032-78.579
		c-4.491-12.788-6.722-25.682-6.467-39.157c0.194-10.244,5.153-17.839,13.19-23.337c5.466-3.739,11.605-6.519,17.531-9.555
		c7.107-3.642,14.549-6.689,21.419-10.72c16.368-9.604,20.579-29.799,9.112-44.83c-4.807-6.3-11.03-11.514-16.562-17.266
		c-3.631-3.775-2.938-10.168,1.721-13.439c6.527-4.585,13.4-8.685,19.871-13.346c7.345-5.29,9.513-17.574,4.61-25.104
		c-2.164-3.323-4.336-6.814-7.206-9.47c-5.837-5.401-12.33-10.088-18.227-15.43c-8.72-7.9-9.834-23.236-2.323-32.958
		c9.993-12.936,22.155-22.878,38.529-26.818c25.124-6.046,46.366-19.803,67.202-34.282c11.664-8.105,17.543-19.193,18.83-33.539
		c1.88-20.957-4.175-39.591-15.081-56.803c-5.667-8.941-12.878-16.912-19.462-25.266c-17.315-21.969-35.082-43.596-51.914-65.927
		c-28.257-37.489-49.249-79.039-66.246-122.652c-11.356-29.138-15.221-58.958-7.847-89.866
		c9.655-40.465,12.414-81.562,10.525-123.061c-0.548-12.029-1.419-23.895-5.248-35.447c-2.09-6.306-3.608-12.838-4.909-19.362
		c-12.059-60.532-43.224-111.121-82.136-157.608c-17.072-20.396-34.662-40.358-52.017-60.518
		C2771.024,1924.565,2773.575,1922.25,2776.126,1919.935z"/>
	<path fill-rule="evenodd" clip-rule="evenodd" fill="#ED1D3B" d="M2076.244,2786.069c13.707-19.405,28.964-37.446,46.939-53.067
		c0.229-0.198,1.87,0.7,2.328,1.42c0.643,1.009,1.47,2.697,1.054,3.466c-11.253,20.79-23.783,40.712-40.218,57.907
		C2082.98,2792.552,2079.612,2789.311,2076.244,2786.069z"/>
	<path fill-rule="evenodd" clip-rule="evenodd" fill="#ED1D3B" d="M2776.126,1919.935c-2.551,2.315-5.102,4.631-7.651,6.946
		c-8.594-3.891-14.631-10.531-19.314-18.447c-2.92-4.934,1.461-6.148,4.534-7.74c-0.041,0.113-0.559,1.302-0.559,1.302
		C2761.129,1907.553,2770.754,1911.019,2776.126,1919.935z"/>
	<path fill-rule="evenodd" clip-rule="evenodd" fill="#ED1D3B" d="M2733.57,1898.271c7.607-4.234,13.843-1.665,19.517,3.826
		c0.049-0.102,0.566-1.29,0.607-1.403c-1.856,2.539-1.951,8.194-7.544,4.905c-4.492-2.642-8.727-5.726-13.076-8.613
		L2733.57,1898.271z"/>
	<path fill-rule="evenodd" clip-rule="evenodd" fill="#ED1D3B" d="M2733.074,1896.985l2.182-0.345c0,0-1.582,1.693-1.634,1.662
		C2733.57,1898.271,2733.074,1896.985,2733.074,1896.985z"/>
</g>
</svg>
